<svg xmlns="http://www.w3.org/2000/svg" width="34" height="44" viewBox="0" version="1.1"><title>cursors 1</title><description>Created with Sketch (http://www.bohemiancoding.com/sketch)</description><g stroke="none" stroke-width="1" fill="none" fill-rule="evenodd"><path d="M30 44L30 38 32 38 32 37 32 34 34 34 34 18 32 18 32 16 30 16 30 14 26 14 26 12 20 12 20 10 16 10 16 2 14 2 14 0 10 0 10 2 8 2 8 18 8 20 6 20 6 18 0 18 0 24 2 24 2 26 4 26 4 30 6 30 6 34 8 34 8 38 10 38 10 44 30 44Z" fill="#000000"/><path d="M28 42L28 38 30 38 30 34 32 34 32 18 30 18 30 16 28 16 28 22 26 22 26 16 26 14 22 14 22 20 20 20 20 14 20 12 16 12 16 20 14 20 14 12 14 2 10 2 10 22 10 24 8 24 8 22 6 22 6 20 2 20 2 24 4 24 4 26 6 26 6 30 8 30 8 34 10 34 10 38 12 38 12 42 28 42Z" fill="#FFFFFF"/></g></svg>